<?xml version="1.0" ?><svg id="Layer_1" style="enable-background:new 0 0 128 128;" version="1.1" viewBox="0 0 128 128" xml:space="preserve" xmlns="http://www.w3.org/2000/svg" xmlns:xlink="http://www.w3.org/1999/xlink"><style type="text/css">
	.st0{fill:#1C4FBE;}
	.st1{fill:#EE693F;}
	.st2{fill:#FFB8CB;}
	.st3{fill:#F94003;}
	.st4{fill:#DEA740;}
	.st5{fill:#1CB6BE;}
	.st6{fill:#BCCE3E;}
	.st7{fill:#EDEFF2;}
	.st8{fill:#684E3C;}
	.st9{fill:#100F0D;}
	.st10{fill:#5B4332;}
	.st11{fill:#5C7242;}
	.st12{fill:#E1B0AF;}
	.st13{fill:#EC5527;}
	.st14{fill:#057590;}
	.st15{fill:#771C39;}
	.st16{fill:#F8A70C;}
	.st17{fill:#F06522;}
	.st18{fill:#FFFFFF;}
	.st19{fill:#CC7C2C;}
	.st20{fill:#5D6124;}
	.st21{fill:#E6AA30;}
	.st22{fill:#2AB06A;}
	.st23{fill:#725948;}
	.st24{fill:#1A1613;}
	.st25{fill:none;}
	.st26{fill:#EE4D4C;}
</style><path class="st2" d="M1.3,72.8c-3.1-35.5,26-66.6,60.4-70c31.4-3.1,62,23.6,64.9,53.9c3.5,36-16.3,65-53.5,67  C39.1,125.5,1.3,112.6,1.3,72.8z"/><path class="st9" d="M106.8,56.4l-0.8-1.2c-1.2-1.7-3.4-2.3-5.3-1.3c-7.6,4.3-16.7,6.6-26.2,6.6c-16,0-30.6-6.6-38.5-17  c-1.2-1.6-3.5-2.1-5.3-1.1l-1.3,0.7c-2.1,1.2-2.6,3.9-1.2,5.8c1.8,2.4,3.8,4.6,6.1,6.6c1.5,1.3,1.8,3.5,0.7,5.2l-3.7,5.6  c-1.2,1.9-0.7,4.3,1.1,5.6l1.2,0.8c1.9,1.2,4.3,0.7,5.6-1.1l3.8-5.7c1.1-1.7,3.2-2.2,5-1.4c0.5,0.2,1,0.5,1.6,0.7  c1.9,0.8,2.8,2.9,2.3,4.8L50,76.4c-0.6,2.1,0.6,4.4,2.7,5l1.4,0.4c2.1,0.6,4.4-0.6,5-2.7l2.1-6.9c0.6-1.9,2.4-3.1,4.4-2.8  c1.2,0.2,2.5,0.3,3.7,0.4c2,0.2,3.6,1.8,3.7,3.8l0.3,6.2c0.1,2.2,2,3.9,4.2,3.8l1.5-0.1c2.2-0.1,3.9-2,3.8-4.2l-0.3-6.1  c-0.1-2,1.4-3.8,3.4-4.2c1.4-0.2,2.8-0.5,4.1-0.9c1.9-0.5,3.9,0.5,4.7,2.3l2.1,4.6c0.9,2,3.2,3,5.3,2.1l1.4-0.6c2-0.9,3-3.2,2.1-5.3  l-1.9-4.1c-0.8-1.9-0.1-4.1,1.7-5.1c0,0,0,0,0.1,0C107.5,61,108.1,58.3,106.8,56.4z"/></svg>