<?xml version="1.0" encoding="utf-8"?><svg viewBox="0 0 800 800" xmlns="http://www.w3.org/2000/svg" xmlns:xlink="http://www.w3.org/1999/xlink"><style>:root>svg{display:none}:root>svg:target{display:block}</style><svg viewBox="0 0 492.002 492.002" id="arrow-top" xmlns="http://www.w3.org/2000/svg"><path d="M484.136 328.473L264.988 109.329c-5.064-5.064-11.816-7.844-19.172-7.844-7.208 0-13.964 2.78-19.02 7.844L7.852 328.265C2.788 333.333 0 340.089 0 347.297s2.784 13.968 7.852 19.032l16.124 16.124c5.064 5.064 11.824 7.86 19.032 7.86s13.964-2.796 19.032-7.86l183.852-183.852 184.056 184.064c5.064 5.06 11.82 7.852 19.032 7.852 7.208 0 13.96-2.792 19.028-7.852l16.128-16.132c10.488-10.492 10.488-27.568 0-38.06z"/></svg><svg viewBox="0 0 32 32" id="clock" xmlns="http://www.w3.org/2000/svg"><path d="M16 2C8.3 2 2 8.3 2 16s6.3 14 14 14 14-6.3 14-14S23.7 2 16 2zm7 15h-7c-.6 0-1-.4-1-1V7c0-.6.4-1 1-1s1 .4 1 1v8h6c.6 0 1 .4 1 1s-.4 1-1 1z"/></svg><svg viewBox="0 0 256 256" id="instagram" xmlns="http://www.w3.org/2000/svg"><path d="M253.546 75.718c-.614-13.458-2.755-22.65-5.88-30.693a62.017 62.017 0 00-14.583-22.399 62.064 62.064 0 00-22.399-14.591c-8.043-3.125-17.235-5.258-30.693-5.871-13.482-.614-17.795-.764-52.133-.764s-38.65.15-52.132.764c-13.458.613-22.65 2.754-30.693 5.879a61.9 61.9 0 00-22.4 14.59 62.001 62.001 0 00-14.59 22.4C4.918 53.076 2.785 62.268 2.17 75.726c-.621 13.49-.763 17.795-.763 52.14s.15 38.65.763 52.14c.614 13.458 2.755 22.65 5.88 30.694A62.017 62.017 0 0022.633 233.1a61.938 61.938 0 0022.399 14.583c8.043 3.125 17.235 5.265 30.693 5.88 13.482.613 17.795.763 52.132.763s38.651-.142 52.133-.764c13.458-.614 22.65-2.754 30.693-5.879a64.662 64.662 0 0036.983-36.982c3.124-8.043 5.265-17.236 5.879-30.694.613-13.49.763-17.794.763-52.14s-.15-38.658-.763-52.148zm-22.761 103.234c-.559 12.332-2.62 19.022-4.352 23.477a41.877 41.877 0 01-23.996 23.996c-4.455 1.731-11.153 3.793-23.477 4.352-13.332.606-17.33.74-51.094.74-33.77 0-37.769-.126-51.093-.74-12.325-.559-19.022-2.62-23.477-4.352a39.146 39.146 0 01-14.536-9.46 39.146 39.146 0 01-9.46-14.536c-1.731-4.455-3.793-11.152-4.352-23.477-.606-13.332-.74-17.33-.74-51.094s.126-37.76.74-51.093c.543-12.34 2.597-19.03 4.328-23.485a39.272 39.272 0 019.46-14.544 39.24 39.24 0 0114.544-9.46c4.455-1.731 11.153-3.793 23.477-4.352 13.332-.606 17.33-.732 51.094-.732s37.76.126 51.093.74c12.333.559 19.022 2.62 23.477 4.352a39.146 39.146 0 0114.536 9.46 39.179 39.179 0 019.46 14.544c1.731 4.455 3.793 11.152 4.352 23.477.606 13.332.74 17.33.74 51.093s-.118 37.762-.724 51.094z"/><path d="M127.85 62.921a64.937 64.937 0 10.024 129.859 64.937 64.937 0 00-.023-129.859zm0 107.082a42.153 42.153 0 11.016-84.305 42.153 42.153 0 01-.015 84.305zm82.677-109.647a15.174 15.174 0 11-30.347 0 15.174 15.174 0 0130.347 0z"/></svg><svg viewBox="0 0 512 512" id="mail" xmlns="http://www.w3.org/2000/svg"><path d="M170.591 239.406L1.584 429.263C1.151 427.352.5 425.504.5 423.411V88.589c0-2.541.71-4.837 1.356-7.144l168.735 157.961zM493.987 65.524c-1.238-.277-2.424-.876-3.79-.876H21.819c-1.297 0-2.456.599-3.769.876l237.961 222.734L493.987 65.524zM262.808 313.021c-1.954 1.869-4.372 2.777-6.797 2.777-2.419 0-4.842-.908-6.775-2.777l-62.21-58.217-170.37 191.341c1.698.523 3.364 1.207 5.163 1.207h468.378c1.89 0 3.534-.684 5.243-1.207L325.082 254.804l-62.274 58.217zm78.686-73.615l168.98 189.836c.459-1.911 1.025-3.759 1.025-5.831V88.589c0-2.499-.62-4.837-1.26-7.133l-168.745 157.95z"/></svg><svg viewBox="0 0 64 64" id="map-marker" xmlns="http://www.w3.org/2000/svg"><path d="M32 2.5c-10.89 0-19.75 9.35-19.75 20.85 0 11 17.77 36.44 18.52 37.51a1.51 1.51 0 002.46 0c.77-1.07 18.52-26.47 18.52-37.51C51.75 11.85 42.89 2.5 32 2.5zm-9.23 20.85c.5-12.23 18-12.23 18.46 0-.5 12.24-17.96 12.23-18.46 0z"/></svg><svg viewBox="0 0 24 24" id="messanger" xmlns="http://www.w3.org/2000/svg"><path d="M12 2C6.478 2 2 6.145 2 11.259c0 2.913 1.454 5.512 3.726 7.21V22l3.405-1.869c.909.252 1.871.388 2.869.388 5.523 0 10-4.145 10-9.259C22 6.146 17.523 2 12 2zm.994 12.469l-2.546-2.716-4.97 2.716 5.467-5.803 2.609 2.716 4.906-2.716-5.466 5.803z" opacity=".6"/></svg><svg viewBox="0 0 19 22" id="play" xmlns="http://www.w3.org/2000/svg"><path d="M18.5 10.134a1 1 0 010 1.732L2 21.392a1 1 0 01-1.5-.866V1.474A1 1 0 012 .608l16.5 9.526z"/></svg><svg viewBox="0 0 24 24" id="telegram" xmlns="http://www.w3.org/2000/svg"><path d="M16.114 9.291c.552-.552 1.1-1.84-1.2-.276a395.806 395.806 0 01-6.489 4.372 2.7 2.7 0 01-2.117.046c-1.38-.414-2.991-.966-2.991-.966s-1.1-.691.783-1.427c0 0 7.961-3.267 10.722-4.418 1.058-.46 4.647-1.932 4.647-1.932s1.657-.645 1.519.92c-.046.644-.414 2.9-.782 5.338-.553 3.451-1.151 7.225-1.151 7.225s-.092 1.058-.874 1.242a3.787 3.787 0 01-2.3-.828c-.184-.138-3.451-2.209-4.648-3.221a.872.872 0 01.046-1.473 169.31 169.31 0 004.835-4.602z"/></svg></svg>